<svg xmlns="http://www.w3.org/2000/svg" xmlns:xlink="http://www.w3.org/1999/xlink" width="500" zoomAndPan="magnify" viewBox="0 0 375 374.999991" height="500" preserveAspectRatio="xMidYMid meet" version="1.0"><defs><g/><clipPath id="a34c5428ca"><path d="M 181 54.8125 L 298.925781 54.8125 L 298.925781 257.3125 L 181 257.3125 Z M 181 54.8125 " clip-rule="nonzero"/></clipPath><clipPath id="ca70af28d7"><path d="M 69.425781 203 L 178 203 L 178 257.3125 L 69.425781 257.3125 Z M 69.425781 203 " clip-rule="nonzero"/></clipPath><clipPath id="edd0c06223"><path d="M 177.996094 54.8125 L 190.746094 54.8125 L 190.746094 67.5625 L 177.996094 67.5625 Z M 177.996094 54.8125 " clip-rule="nonzero"/></clipPath><clipPath id="cafaf525ae"><path d="M 177.996094 116.546875 L 190.746094 116.546875 L 190.746094 129.296875 L 177.996094 129.296875 Z M 177.996094 116.546875 " clip-rule="nonzero"/></clipPath><clipPath id="9ad033cbbf"><path d="M 200.46875 127.046875 L 213.21875 127.046875 L 213.21875 139.796875 L 200.46875 139.796875 Z M 200.46875 127.046875 " clip-rule="nonzero"/></clipPath><clipPath id="46850bb815"><path d="M 227.136719 141.226562 L 239.886719 141.226562 L 239.886719 153.976562 L 227.136719 153.976562 Z M 227.136719 141.226562 " clip-rule="nonzero"/></clipPath><clipPath id="ee8ff2a9cf"><path d="M 209.863281 193.121094 L 222.613281 193.121094 L 222.613281 205.871094 L 209.863281 205.871094 Z M 209.863281 193.121094 " clip-rule="nonzero"/></clipPath><clipPath id="fa6b17a49c"><path d="M 177.996094 193.121094 L 190.746094 193.121094 L 190.746094 205.871094 L 177.996094 205.871094 Z M 177.996094 193.121094 " clip-rule="nonzero"/></clipPath><clipPath id="ec07974f41"><path d="M 177.996094 247.6875 L 190.746094 247.6875 L 190.746094 260.4375 L 177.996094 260.4375 Z M 177.996094 247.6875 " clip-rule="nonzero"/></clipPath><clipPath id="106bff55f6"><path d="M 288.328125 247.6875 L 301.078125 247.6875 L 301.078125 260.4375 L 288.328125 260.4375 Z M 288.328125 247.6875 " clip-rule="nonzero"/></clipPath></defs><rect x="-37.5" width="450" fill="#ffffff" y="-37.499999" height="449.999989" fill-opacity="1"/><rect x="-37.5" width="450" fill="#ffffff" y="-37.499999" height="449.999989" fill-opacity="1"/><rect x="-37.5" width="450" fill="#ffffff" y="-37.499999" height="449.999989" fill-opacity="1"/><g clip-path="url(#a34c5428ca)"><path fill="#666666" d="M 216.628906 193.726562 L 230.804688 150.007812 L 188.648438 126.527344 Z M 287.996094 253.539062 L 217.578125 203.40625 L 188.015625 253.539062 Z M 234.074219 154.421875 L 219.523438 199.300781 L 287.964844 248.023438 Z M 193.816406 84.492188 L 210.648438 133.664062 L 227.542969 143.074219 Z M 204.800781 130.40625 L 186.417969 76.695312 L 186.34375 120.125 Z M 186.335938 202.351562 L 186.335938 247.582031 L 212.980469 202.402344 Z M 186.335938 132.605469 L 186.335938 197.882812 L 213.535156 197.929688 Z M 186.335938 62.550781 L 298.871094 258.027344 L 181.855469 258.027344 L 181.855469 54.769531 Z M 186.335938 62.550781 " fill-opacity="1" fill-rule="nonzero"/></g><g clip-path="url(#ca70af28d7)"><path fill="#006cb7" d="M 177.019531 253.332031 L 145.773438 203.40625 L 69.476562 258.027344 L 177.019531 257.996094 Z M 177.019531 253.332031 " fill-opacity="1" fill-rule="evenodd"/></g><path fill="#006cb7" d="M 75.386719 248.023438 L 143.828125 199.300781 L 129.277344 154.421875 Z M 75.386719 248.023438 " fill-opacity="1" fill-rule="evenodd"/><path fill="#006cb7" d="M 150.375 202.402344 L 177.019531 247.582031 L 177.019531 202.351562 Z M 150.375 202.402344 " fill-opacity="1" fill-rule="evenodd"/><path fill="#006cb7" d="M 149.820312 197.929688 L 177.019531 197.875 L 177.019531 132.605469 Z M 149.820312 197.929688 " fill-opacity="1" fill-rule="evenodd"/><path fill="#006cb7" d="M 146.726562 193.726562 L 174.703125 126.527344 L 132.546875 150.007812 Z M 146.726562 193.726562 " fill-opacity="1" fill-rule="evenodd"/><path fill="#006cb7" d="M 158.554688 130.40625 L 177.011719 120.125 L 176.9375 76.695312 Z M 158.554688 130.40625 " fill-opacity="1" fill-rule="evenodd"/><path fill="#006cb7" d="M 152.707031 133.664062 L 169.535156 84.492188 L 135.8125 143.074219 Z M 152.707031 133.664062 " fill-opacity="1" fill-rule="evenodd"/><g fill="#666666" fill-opacity="1"><g transform="translate(125.640597, 299.584289)"><g><path d="M 10 -38.234375 L 10 0 L 2.828125 0 L 2.828125 -36.65625 Z M 10 -38.234375 "/></g></g></g><g fill="#666666" fill-opacity="1"><g transform="translate(144.702132, 299.584289)"><g><path d="M 27.28125 -3.40625 C 25.601562 -2.039062 23.882812 -1.039062 22.125 -0.40625 C 20.363281 0.21875 18.398438 0.53125 16.234375 0.53125 C 14.171875 0.53125 12.238281 0.164062 10.4375 -0.5625 C 8.644531 -1.300781 7.09375 -2.300781 5.78125 -3.5625 C 4.476562 -4.820312 3.453125 -6.3125 2.703125 -8.03125 C 1.953125 -9.757812 1.578125 -11.625 1.578125 -13.625 C 1.578125 -15.570312 1.929688 -17.410156 2.640625 -19.140625 C 3.359375 -20.867188 4.34375 -22.367188 5.59375 -23.640625 C 6.851562 -24.921875 8.347656 -25.925781 10.078125 -26.65625 C 11.804688 -27.394531 13.648438 -27.765625 15.609375 -27.765625 C 17.523438 -27.765625 19.3125 -27.382812 20.96875 -26.625 C 22.632812 -25.875 24.066406 -24.851562 25.265625 -23.5625 C 26.472656 -22.269531 27.414062 -20.722656 28.09375 -18.921875 C 28.78125 -17.128906 29.125 -15.1875 29.125 -13.09375 L 29.125 -11.203125 L 8.796875 -11.203125 C 9.285156 -9.492188 10.226562 -8.113281 11.625 -7.0625 C 13.019531 -6.019531 14.660156 -5.5 16.546875 -5.5 C 17.734375 -5.5 18.847656 -5.691406 19.890625 -6.078125 C 20.941406 -6.460938 21.835938 -7.003906 22.578125 -7.703125 Z M 15.453125 -21.84375 C 13.804688 -21.84375 12.390625 -21.34375 11.203125 -20.34375 C 10.015625 -19.351562 9.195312 -18.019531 8.75 -16.34375 L 22.109375 -16.34375 C 21.648438 -17.945312 20.816406 -19.265625 19.609375 -20.296875 C 18.410156 -21.328125 17.023438 -21.84375 15.453125 -21.84375 Z M 15.453125 -21.84375 "/></g></g></g><g fill="#666666" fill-opacity="1"><g transform="translate(181.672033, 299.584289)"><g><path d="M 0.53125 -3.25 L 4.078125 -8.015625 C 5.691406 -6.960938 7.210938 -6.179688 8.640625 -5.671875 C 10.078125 -5.171875 11.507812 -4.921875 12.9375 -4.921875 C 14.539062 -4.921875 15.820312 -5.179688 16.78125 -5.703125 C 17.738281 -6.234375 18.21875 -6.929688 18.21875 -7.796875 C 18.21875 -8.492188 17.945312 -9.050781 17.40625 -9.46875 C 16.875 -9.894531 16.015625 -10.195312 14.828125 -10.375 L 9.578125 -11.15625 C 6.890625 -11.570312 4.835938 -12.441406 3.421875 -13.765625 C 2.015625 -15.097656 1.3125 -16.863281 1.3125 -19.0625 C 1.3125 -21.6875 2.335938 -23.78125 4.390625 -25.34375 C 6.453125 -26.914062 9.210938 -27.703125 12.671875 -27.703125 C 14.660156 -27.703125 16.597656 -27.414062 18.484375 -26.84375 C 20.367188 -26.269531 22.171875 -25.421875 23.890625 -24.296875 L 20.421875 -19.6875 C 18.921875 -20.5625 17.488281 -21.21875 16.125 -21.65625 C 14.769531 -22.09375 13.394531 -22.3125 12 -22.3125 C 10.707031 -22.3125 9.664062 -22.066406 8.875 -21.578125 C 8.09375 -21.085938 7.703125 -20.441406 7.703125 -19.640625 C 7.703125 -18.910156 7.988281 -18.34375 8.5625 -17.9375 C 9.132812 -17.539062 10.085938 -17.253906 11.421875 -17.078125 L 16.65625 -16.28125 C 19.3125 -15.90625 21.363281 -15.035156 22.8125 -13.671875 C 24.257812 -12.304688 24.984375 -10.578125 24.984375 -8.484375 C 24.984375 -7.191406 24.675781 -5.992188 24.0625 -4.890625 C 23.457031 -3.796875 22.628906 -2.847656 21.578125 -2.046875 C 20.523438 -1.242188 19.265625 -0.613281 17.796875 -0.15625 C 16.335938 0.300781 14.753906 0.53125 13.046875 0.53125 C 10.566406 0.53125 8.242188 0.207031 6.078125 -0.4375 C 3.910156 -1.09375 2.0625 -2.03125 0.53125 -3.25 Z M 0.53125 -3.25 "/></g></g></g><g fill="#666666" fill-opacity="1"><g transform="translate(213.667396, 299.584289)"><g><path d="M 11.46875 0.46875 C 8.539062 0.46875 6.148438 -0.304688 4.296875 -1.859375 C 2.441406 -3.410156 1.515625 -5.425781 1.515625 -7.90625 C 1.515625 -10.488281 2.507812 -12.515625 4.5 -13.984375 C 6.488281 -15.453125 9.234375 -16.1875 12.734375 -16.1875 C 13.847656 -16.1875 14.960938 -16.097656 16.078125 -15.921875 C 17.191406 -15.742188 18.289062 -15.484375 19.375 -15.140625 L 19.375 -17.078125 C 19.375 -18.648438 18.882812 -19.835938 17.90625 -20.640625 C 16.9375 -21.441406 15.507812 -21.84375 13.625 -21.84375 C 12.46875 -21.84375 11.21875 -21.65625 9.875 -21.28125 C 8.53125 -20.914062 7.003906 -20.351562 5.296875 -19.59375 L 2.671875 -24.875 C 4.796875 -25.851562 6.863281 -26.585938 8.875 -27.078125 C 10.882812 -27.566406 12.867188 -27.8125 14.828125 -27.8125 C 18.492188 -27.8125 21.347656 -26.925781 23.390625 -25.15625 C 25.429688 -23.394531 26.453125 -20.910156 26.453125 -17.703125 L 26.453125 0 L 19.375 0 L 19.375 -1.890625 C 18.226562 -1.085938 17.015625 -0.492188 15.734375 -0.109375 C 14.460938 0.273438 13.039062 0.46875 11.46875 0.46875 Z M 8.375 -8.0625 C 8.375 -7.019531 8.828125 -6.191406 9.734375 -5.578125 C 10.648438 -4.960938 11.859375 -4.65625 13.359375 -4.65625 C 14.546875 -4.65625 15.632812 -4.800781 16.625 -5.09375 C 17.625 -5.394531 18.539062 -5.828125 19.375 -6.390625 L 19.375 -10.46875 C 18.5 -10.820312 17.582031 -11.078125 16.625 -11.234375 C 15.664062 -11.390625 14.664062 -11.46875 13.625 -11.46875 C 11.976562 -11.46875 10.691406 -11.160156 9.765625 -10.546875 C 8.835938 -9.941406 8.375 -9.113281 8.375 -8.0625 Z M 8.375 -8.0625 "/></g></g></g><g fill="#006cb7" fill-opacity="1"><g transform="translate(67.357002, 315.981622)"><g><path d="M 1 0 L 1 -9.140625 L 2.015625 -9.140625 L 2.015625 -0.90625 L 7.453125 -0.90625 L 7.453125 0 Z M 1 0 "/></g></g></g><g fill="#006cb7" fill-opacity="1"><g transform="translate(75.662124, 315.981622)"><g><path d="M 1.3125 -7.78125 C 1.132812 -7.78125 0.976562 -7.847656 0.84375 -7.984375 C 0.71875 -8.117188 0.65625 -8.269531 0.65625 -8.4375 C 0.65625 -8.625 0.71875 -8.78125 0.84375 -8.90625 C 0.976562 -9.03125 1.132812 -9.09375 1.3125 -9.09375 C 1.488281 -9.09375 1.640625 -9.03125 1.765625 -8.90625 C 1.890625 -8.78125 1.953125 -8.625 1.953125 -8.4375 C 1.953125 -8.269531 1.890625 -8.117188 1.765625 -7.984375 C 1.640625 -7.847656 1.488281 -7.78125 1.3125 -7.78125 Z M 1.78125 -6.53125 L 1.78125 0 L 0.828125 0 L 0.828125 -6.53125 Z M 1.78125 -6.53125 "/></g></g></g><g fill="#006cb7" fill-opacity="1"><g transform="translate(78.700293, 315.981622)"><g><path d="M 3.78125 0.046875 C 3.332031 0.046875 2.910156 -0.0351562 2.515625 -0.203125 C 2.117188 -0.378906 1.769531 -0.617188 1.46875 -0.921875 C 1.175781 -1.222656 0.941406 -1.578125 0.765625 -1.984375 C 0.597656 -2.390625 0.515625 -2.828125 0.515625 -3.296875 C 0.515625 -3.765625 0.597656 -4.203125 0.765625 -4.609375 C 0.941406 -5.023438 1.175781 -5.378906 1.46875 -5.671875 C 1.769531 -5.972656 2.117188 -6.210938 2.515625 -6.390625 C 2.921875 -6.566406 3.351562 -6.65625 3.8125 -6.65625 C 4.1875 -6.65625 4.546875 -6.585938 4.890625 -6.453125 C 5.242188 -6.316406 5.570312 -6.128906 5.875 -5.890625 L 5.875 -6.53125 L 6.828125 -6.53125 L 6.828125 0.15625 C 6.828125 0.988281 6.582031 1.628906 6.09375 2.078125 C 5.601562 2.523438 4.90625 2.75 4 2.75 C 3.550781 2.75 3.101562 2.691406 2.65625 2.578125 C 2.21875 2.460938 1.816406 2.296875 1.453125 2.078125 L 1.859375 1.3125 C 2.253906 1.519531 2.617188 1.671875 2.953125 1.765625 C 3.285156 1.867188 3.625 1.921875 3.96875 1.921875 C 4.582031 1.921875 5.050781 1.769531 5.375 1.46875 C 5.695312 1.175781 5.859375 0.742188 5.859375 0.171875 L 5.859375 -0.703125 C 5.566406 -0.460938 5.242188 -0.273438 4.890625 -0.140625 C 4.535156 -0.015625 4.164062 0.046875 3.78125 0.046875 Z M 1.46875 -3.296875 C 1.46875 -2.953125 1.53125 -2.625 1.65625 -2.3125 C 1.78125 -2.007812 1.945312 -1.742188 2.15625 -1.515625 C 2.375 -1.296875 2.628906 -1.117188 2.921875 -0.984375 C 3.210938 -0.859375 3.523438 -0.796875 3.859375 -0.796875 C 4.273438 -0.796875 4.65625 -0.875 5 -1.03125 C 5.351562 -1.1875 5.640625 -1.410156 5.859375 -1.703125 L 5.859375 -4.90625 C 5.640625 -5.1875 5.351562 -5.40625 5 -5.5625 C 4.644531 -5.71875 4.265625 -5.796875 3.859375 -5.796875 C 3.523438 -5.796875 3.210938 -5.734375 2.921875 -5.609375 C 2.628906 -5.484375 2.375 -5.304688 2.15625 -5.078125 C 1.945312 -4.847656 1.78125 -4.582031 1.65625 -4.28125 C 1.53125 -3.976562 1.46875 -3.648438 1.46875 -3.296875 Z M 1.46875 -3.296875 "/></g></g></g><g fill="#006cb7" fill-opacity="1"><g transform="translate(86.770757, 315.981622)"><g><path d="M 0.828125 0 L 0.828125 -9.140625 L 1.78125 -9.359375 L 1.78125 -5.765625 C 2.039062 -6.054688 2.34375 -6.28125 2.6875 -6.4375 C 3.03125 -6.59375 3.414062 -6.671875 3.84375 -6.671875 C 4.582031 -6.671875 5.1875 -6.4375 5.65625 -5.96875 C 6.125 -5.5 6.359375 -4.890625 6.359375 -4.140625 L 6.359375 0 L 5.421875 0 L 5.421875 -3.9375 C 5.421875 -4.507812 5.253906 -4.960938 4.921875 -5.296875 C 4.585938 -5.640625 4.144531 -5.8125 3.59375 -5.8125 C 3.195312 -5.8125 2.84375 -5.722656 2.53125 -5.546875 C 2.226562 -5.378906 1.976562 -5.132812 1.78125 -4.8125 L 1.78125 0 Z M 0.828125 0 "/></g></g></g><g fill="#006cb7" fill-opacity="1"><g transform="translate(94.358845, 315.981622)"><g><path d="M 1.625 -1.46875 L 1.625 -5.71875 L 0.21875 -5.71875 L 0.21875 -6.53125 L 1.625 -6.53125 L 1.625 -8.1875 L 2.578125 -8.4375 L 2.578125 -6.53125 L 4.546875 -6.53125 L 4.546875 -5.71875 L 2.578125 -5.71875 L 2.578125 -1.703125 C 2.578125 -1.359375 2.65625 -1.109375 2.8125 -0.953125 C 2.96875 -0.804688 3.226562 -0.734375 3.59375 -0.734375 C 3.769531 -0.734375 3.929688 -0.742188 4.078125 -0.765625 C 4.222656 -0.796875 4.378906 -0.84375 4.546875 -0.90625 L 4.546875 -0.046875 C 4.378906 0.015625 4.191406 0.0546875 3.984375 0.078125 C 3.773438 0.109375 3.578125 0.125 3.390625 0.125 C 2.828125 0.125 2.390625 -0.0078125 2.078125 -0.28125 C 1.773438 -0.550781 1.625 -0.945312 1.625 -1.46875 Z M 1.625 -1.46875 "/></g></g></g><g fill="#006cb7" fill-opacity="1"><g transform="translate(99.548124, 315.981622)"><g><path d="M 2.96875 0 L 2.015625 0 L 0.1875 -6.53125 L 1.140625 -6.53125 L 2.546875 -1.3125 L 4.171875 -6.53125 L 5.03125 -6.53125 L 6.65625 -1.3125 L 8.078125 -6.53125 L 8.984375 -6.53125 L 7.140625 0 L 6.203125 0 L 4.59375 -5.234375 Z M 2.96875 0 "/></g></g></g><g fill="#006cb7" fill-opacity="1"><g transform="translate(109.143906, 315.981622)"><g><path d="M 6.328125 -0.6875 C 5.960938 -0.414062 5.582031 -0.210938 5.1875 -0.078125 C 4.789062 0.0546875 4.359375 0.125 3.890625 0.125 C 3.421875 0.125 2.976562 0.0351562 2.5625 -0.140625 C 2.144531 -0.316406 1.785156 -0.554688 1.484375 -0.859375 C 1.191406 -1.160156 0.957031 -1.519531 0.78125 -1.9375 C 0.601562 -2.351562 0.515625 -2.800781 0.515625 -3.28125 C 0.515625 -3.75 0.597656 -4.1875 0.765625 -4.59375 C 0.941406 -5 1.171875 -5.351562 1.453125 -5.65625 C 1.742188 -5.96875 2.085938 -6.207031 2.484375 -6.375 C 2.878906 -6.550781 3.300781 -6.640625 3.75 -6.640625 C 4.175781 -6.640625 4.578125 -6.550781 4.953125 -6.375 C 5.335938 -6.207031 5.664062 -5.96875 5.9375 -5.65625 C 6.21875 -5.351562 6.4375 -5 6.59375 -4.59375 C 6.757812 -4.1875 6.84375 -3.75 6.84375 -3.28125 L 6.84375 -2.96875 L 1.46875 -2.96875 C 1.539062 -2.332031 1.804688 -1.800781 2.265625 -1.375 C 2.734375 -0.945312 3.285156 -0.734375 3.921875 -0.734375 C 4.265625 -0.734375 4.597656 -0.785156 4.921875 -0.890625 C 5.242188 -0.992188 5.515625 -1.140625 5.734375 -1.328125 Z M 3.71875 -5.796875 C 3.15625 -5.796875 2.664062 -5.601562 2.25 -5.21875 C 1.832031 -4.832031 1.582031 -4.34375 1.5 -3.75 L 5.875 -3.75 C 5.78125 -4.320312 5.53125 -4.804688 5.125 -5.203125 C 4.726562 -5.597656 4.257812 -5.796875 3.71875 -5.796875 Z M 3.71875 -5.796875 "/></g></g></g><g fill="#006cb7" fill-opacity="1"><g transform="translate(116.927546, 315.981622)"><g><path d="M 1.3125 -7.78125 C 1.132812 -7.78125 0.976562 -7.847656 0.84375 -7.984375 C 0.71875 -8.117188 0.65625 -8.269531 0.65625 -8.4375 C 0.65625 -8.625 0.71875 -8.78125 0.84375 -8.90625 C 0.976562 -9.03125 1.132812 -9.09375 1.3125 -9.09375 C 1.488281 -9.09375 1.640625 -9.03125 1.765625 -8.90625 C 1.890625 -8.78125 1.953125 -8.625 1.953125 -8.4375 C 1.953125 -8.269531 1.890625 -8.117188 1.765625 -7.984375 C 1.640625 -7.847656 1.488281 -7.78125 1.3125 -7.78125 Z M 1.78125 -6.53125 L 1.78125 0 L 0.828125 0 L 0.828125 -6.53125 Z M 1.78125 -6.53125 "/></g></g></g><g fill="#006cb7" fill-opacity="1"><g transform="translate(119.965714, 315.981622)"><g><path d="M 3.78125 0.046875 C 3.332031 0.046875 2.910156 -0.0351562 2.515625 -0.203125 C 2.117188 -0.378906 1.769531 -0.617188 1.46875 -0.921875 C 1.175781 -1.222656 0.941406 -1.578125 0.765625 -1.984375 C 0.597656 -2.390625 0.515625 -2.828125 0.515625 -3.296875 C 0.515625 -3.765625 0.597656 -4.203125 0.765625 -4.609375 C 0.941406 -5.023438 1.175781 -5.378906 1.46875 -5.671875 C 1.769531 -5.972656 2.117188 -6.210938 2.515625 -6.390625 C 2.921875 -6.566406 3.351562 -6.65625 3.8125 -6.65625 C 4.1875 -6.65625 4.546875 -6.585938 4.890625 -6.453125 C 5.242188 -6.316406 5.570312 -6.128906 5.875 -5.890625 L 5.875 -6.53125 L 6.828125 -6.53125 L 6.828125 0.15625 C 6.828125 0.988281 6.582031 1.628906 6.09375 2.078125 C 5.601562 2.523438 4.90625 2.75 4 2.75 C 3.550781 2.75 3.101562 2.691406 2.65625 2.578125 C 2.21875 2.460938 1.816406 2.296875 1.453125 2.078125 L 1.859375 1.3125 C 2.253906 1.519531 2.617188 1.671875 2.953125 1.765625 C 3.285156 1.867188 3.625 1.921875 3.96875 1.921875 C 4.582031 1.921875 5.050781 1.769531 5.375 1.46875 C 5.695312 1.175781 5.859375 0.742188 5.859375 0.171875 L 5.859375 -0.703125 C 5.566406 -0.460938 5.242188 -0.273438 4.890625 -0.140625 C 4.535156 -0.015625 4.164062 0.046875 3.78125 0.046875 Z M 1.46875 -3.296875 C 1.46875 -2.953125 1.53125 -2.625 1.65625 -2.3125 C 1.78125 -2.007812 1.945312 -1.742188 2.15625 -1.515625 C 2.375 -1.296875 2.628906 -1.117188 2.921875 -0.984375 C 3.210938 -0.859375 3.523438 -0.796875 3.859375 -0.796875 C 4.273438 -0.796875 4.65625 -0.875 5 -1.03125 C 5.351562 -1.1875 5.640625 -1.410156 5.859375 -1.703125 L 5.859375 -4.90625 C 5.640625 -5.1875 5.351562 -5.40625 5 -5.5625 C 4.644531 -5.71875 4.265625 -5.796875 3.859375 -5.796875 C 3.523438 -5.796875 3.210938 -5.734375 2.921875 -5.609375 C 2.628906 -5.484375 2.375 -5.304688 2.15625 -5.078125 C 1.945312 -4.847656 1.78125 -4.582031 1.65625 -4.28125 C 1.53125 -3.976562 1.46875 -3.648438 1.46875 -3.296875 Z M 1.46875 -3.296875 "/></g></g></g><g fill="#006cb7" fill-opacity="1"><g transform="translate(128.036179, 315.981622)"><g><path d="M 0.828125 0 L 0.828125 -9.140625 L 1.78125 -9.359375 L 1.78125 -5.765625 C 2.039062 -6.054688 2.34375 -6.28125 2.6875 -6.4375 C 3.03125 -6.59375 3.414062 -6.671875 3.84375 -6.671875 C 4.582031 -6.671875 5.1875 -6.4375 5.65625 -5.96875 C 6.125 -5.5 6.359375 -4.890625 6.359375 -4.140625 L 6.359375 0 L 5.421875 0 L 5.421875 -3.9375 C 5.421875 -4.507812 5.253906 -4.960938 4.921875 -5.296875 C 4.585938 -5.640625 4.144531 -5.8125 3.59375 -5.8125 C 3.195312 -5.8125 2.84375 -5.722656 2.53125 -5.546875 C 2.226562 -5.378906 1.976562 -5.132812 1.78125 -4.8125 L 1.78125 0 Z M 0.828125 0 "/></g></g></g><g fill="#006cb7" fill-opacity="1"><g transform="translate(135.624268, 315.981622)"><g><path d="M 1.625 -1.46875 L 1.625 -5.71875 L 0.21875 -5.71875 L 0.21875 -6.53125 L 1.625 -6.53125 L 1.625 -8.1875 L 2.578125 -8.4375 L 2.578125 -6.53125 L 4.546875 -6.53125 L 4.546875 -5.71875 L 2.578125 -5.71875 L 2.578125 -1.703125 C 2.578125 -1.359375 2.65625 -1.109375 2.8125 -0.953125 C 2.96875 -0.804688 3.226562 -0.734375 3.59375 -0.734375 C 3.769531 -0.734375 3.929688 -0.742188 4.078125 -0.765625 C 4.222656 -0.796875 4.378906 -0.84375 4.546875 -0.90625 L 4.546875 -0.046875 C 4.378906 0.015625 4.191406 0.0546875 3.984375 0.078125 C 3.773438 0.109375 3.578125 0.125 3.390625 0.125 C 2.828125 0.125 2.390625 -0.0078125 2.078125 -0.28125 C 1.773438 -0.550781 1.625 -0.945312 1.625 -1.46875 Z M 1.625 -1.46875 "/></g></g></g><g fill="#006cb7" fill-opacity="1"><g transform="translate(140.813547, 315.981622)"><g/></g></g><g fill="#006cb7" fill-opacity="1"><g transform="translate(144.047267, 315.981622)"><g><path d="M 1 0 L 1 -9.140625 L 7.546875 -9.140625 L 7.546875 -8.25 L 2.015625 -8.25 L 2.015625 -5.046875 L 5.625 -5.046875 L 5.625 -4.171875 L 2.015625 -4.171875 L 2.015625 -0.890625 L 7.59375 -0.890625 L 7.59375 0 Z M 1 0 "/></g></g></g><g fill="#006cb7" fill-opacity="1"><g transform="translate(152.508832, 315.981622)"><g><path d="M 1.78125 -9.359375 L 1.78125 0 L 0.828125 0 L 0.828125 -9.140625 Z M 1.78125 -9.359375 "/></g></g></g><g fill="#006cb7" fill-opacity="1"><g transform="translate(155.547, 315.981622)"><g><path d="M 2.890625 0.125 C 2.171875 0.125 1.585938 -0.0546875 1.140625 -0.421875 C 0.691406 -0.796875 0.46875 -1.273438 0.46875 -1.859375 C 0.46875 -2.460938 0.703125 -2.941406 1.171875 -3.296875 C 1.640625 -3.660156 2.273438 -3.84375 3.078125 -3.84375 C 3.421875 -3.84375 3.753906 -3.800781 4.078125 -3.71875 C 4.410156 -3.644531 4.71875 -3.539062 5 -3.40625 L 5 -4.265625 C 5 -4.785156 4.847656 -5.175781 4.546875 -5.4375 C 4.253906 -5.707031 3.828125 -5.84375 3.265625 -5.84375 C 2.941406 -5.84375 2.613281 -5.796875 2.28125 -5.703125 C 1.957031 -5.617188 1.601562 -5.472656 1.21875 -5.265625 L 0.84375 -6.015625 C 1.3125 -6.242188 1.742188 -6.410156 2.140625 -6.515625 C 2.546875 -6.617188 2.953125 -6.671875 3.359375 -6.671875 C 4.179688 -6.671875 4.816406 -6.472656 5.265625 -6.078125 C 5.710938 -5.691406 5.9375 -5.128906 5.9375 -4.390625 L 5.9375 0 L 5 0 L 5 -0.640625 C 4.695312 -0.390625 4.367188 -0.195312 4.015625 -0.0625 C 3.671875 0.0625 3.296875 0.125 2.890625 0.125 Z M 1.390625 -1.875 C 1.390625 -1.507812 1.546875 -1.210938 1.859375 -0.984375 C 2.171875 -0.753906 2.566406 -0.640625 3.046875 -0.640625 C 3.441406 -0.640625 3.800781 -0.695312 4.125 -0.8125 C 4.445312 -0.9375 4.738281 -1.128906 5 -1.390625 L 5 -2.625 C 4.726562 -2.800781 4.4375 -2.929688 4.125 -3.015625 C 3.820312 -3.097656 3.484375 -3.140625 3.109375 -3.140625 C 2.585938 -3.140625 2.171875 -3.023438 1.859375 -2.796875 C 1.546875 -2.566406 1.390625 -2.257812 1.390625 -1.875 Z M 1.390625 -1.875 "/></g></g></g><g fill="#006cb7" fill-opacity="1"><g transform="translate(162.704864, 315.981622)"><g><path d="M 0.15625 -0.90625 L 0.75 -1.53125 C 1.039062 -1.25 1.367188 -1.03125 1.734375 -0.875 C 2.109375 -0.726562 2.488281 -0.65625 2.875 -0.65625 C 3.394531 -0.65625 3.816406 -0.765625 4.140625 -0.984375 C 4.472656 -1.203125 4.640625 -1.484375 4.640625 -1.828125 C 4.640625 -2.109375 4.539062 -2.328125 4.34375 -2.484375 C 4.15625 -2.648438 3.851562 -2.757812 3.4375 -2.8125 L 2.296875 -2.96875 C 1.640625 -3.070312 1.148438 -3.269531 0.828125 -3.5625 C 0.515625 -3.851562 0.359375 -4.242188 0.359375 -4.734375 C 0.359375 -5.285156 0.585938 -5.738281 1.046875 -6.09375 C 1.515625 -6.457031 2.101562 -6.640625 2.8125 -6.640625 C 3.28125 -6.640625 3.722656 -6.566406 4.140625 -6.421875 C 4.566406 -6.285156 4.984375 -6.070312 5.390625 -5.78125 L 4.875 -5.125 C 4.507812 -5.375 4.15625 -5.554688 3.8125 -5.671875 C 3.46875 -5.796875 3.117188 -5.859375 2.765625 -5.859375 C 2.316406 -5.859375 1.953125 -5.757812 1.671875 -5.5625 C 1.390625 -5.363281 1.25 -5.101562 1.25 -4.78125 C 1.25 -4.5 1.34375 -4.28125 1.53125 -4.125 C 1.726562 -3.976562 2.039062 -3.875 2.46875 -3.8125 L 3.59375 -3.65625 C 4.25 -3.5625 4.738281 -3.363281 5.0625 -3.0625 C 5.394531 -2.769531 5.5625 -2.375 5.5625 -1.875 C 5.5625 -1.601562 5.492188 -1.34375 5.359375 -1.09375 C 5.222656 -0.84375 5.035156 -0.628906 4.796875 -0.453125 C 4.554688 -0.273438 4.273438 -0.132812 3.953125 -0.03125 C 3.628906 0.0703125 3.28125 0.125 2.90625 0.125 C 2.363281 0.125 1.851562 0.0351562 1.375 -0.140625 C 0.90625 -0.328125 0.5 -0.582031 0.15625 -0.90625 Z M 0.15625 -0.90625 "/></g></g></g><g fill="#006cb7" fill-opacity="1"><g transform="translate(168.950144, 315.981622)"><g><path d="M 1.625 -1.46875 L 1.625 -5.71875 L 0.21875 -5.71875 L 0.21875 -6.53125 L 1.625 -6.53125 L 1.625 -8.1875 L 2.578125 -8.4375 L 2.578125 -6.53125 L 4.546875 -6.53125 L 4.546875 -5.71875 L 2.578125 -5.71875 L 2.578125 -1.703125 C 2.578125 -1.359375 2.65625 -1.109375 2.8125 -0.953125 C 2.96875 -0.804688 3.226562 -0.734375 3.59375 -0.734375 C 3.769531 -0.734375 3.929688 -0.742188 4.078125 -0.765625 C 4.222656 -0.796875 4.378906 -0.84375 4.546875 -0.90625 L 4.546875 -0.046875 C 4.378906 0.015625 4.191406 0.0546875 3.984375 0.078125 C 3.773438 0.109375 3.578125 0.125 3.390625 0.125 C 2.828125 0.125 2.390625 -0.0078125 2.078125 -0.28125 C 1.773438 -0.550781 1.625 -0.945312 1.625 -1.46875 Z M 1.625 -1.46875 "/></g></g></g><g fill="#006cb7" fill-opacity="1"><g transform="translate(174.139423, 315.981622)"><g><path d="M 1.3125 -7.78125 C 1.132812 -7.78125 0.976562 -7.847656 0.84375 -7.984375 C 0.71875 -8.117188 0.65625 -8.269531 0.65625 -8.4375 C 0.65625 -8.625 0.71875 -8.78125 0.84375 -8.90625 C 0.976562 -9.03125 1.132812 -9.09375 1.3125 -9.09375 C 1.488281 -9.09375 1.640625 -9.03125 1.765625 -8.90625 C 1.890625 -8.78125 1.953125 -8.625 1.953125 -8.4375 C 1.953125 -8.269531 1.890625 -8.117188 1.765625 -7.984375 C 1.640625 -7.847656 1.488281 -7.78125 1.3125 -7.78125 Z M 1.78125 -6.53125 L 1.78125 0 L 0.828125 0 L 0.828125 -6.53125 Z M 1.78125 -6.53125 "/></g></g></g><g fill="#006cb7" fill-opacity="1"><g transform="translate(177.177591, 315.981622)"><g><path d="M 3.875 -0.75 C 4.21875 -0.75 4.550781 -0.816406 4.875 -0.953125 C 5.195312 -1.097656 5.5 -1.304688 5.78125 -1.578125 L 6.375 -0.921875 C 6.03125 -0.597656 5.640625 -0.34375 5.203125 -0.15625 C 4.765625 0.03125 4.3125 0.125 3.84375 0.125 C 3.382812 0.125 2.953125 0.0351562 2.546875 -0.140625 C 2.140625 -0.316406 1.785156 -0.554688 1.484375 -0.859375 C 1.191406 -1.160156 0.957031 -1.519531 0.78125 -1.9375 C 0.601562 -2.351562 0.515625 -2.800781 0.515625 -3.28125 C 0.515625 -3.75 0.601562 -4.1875 0.78125 -4.59375 C 0.957031 -5.007812 1.191406 -5.367188 1.484375 -5.671875 C 1.785156 -5.972656 2.140625 -6.210938 2.546875 -6.390625 C 2.953125 -6.578125 3.382812 -6.671875 3.84375 -6.671875 C 4.3125 -6.671875 4.769531 -6.578125 5.21875 -6.390625 C 5.664062 -6.210938 6.0625 -5.960938 6.40625 -5.640625 L 5.796875 -4.9375 C 5.535156 -5.207031 5.234375 -5.414062 4.890625 -5.5625 C 4.554688 -5.707031 4.210938 -5.78125 3.859375 -5.78125 C 3.523438 -5.78125 3.210938 -5.710938 2.921875 -5.578125 C 2.628906 -5.453125 2.375 -5.273438 2.15625 -5.046875 C 1.945312 -4.816406 1.78125 -4.550781 1.65625 -4.25 C 1.53125 -3.945312 1.46875 -3.625 1.46875 -3.28125 C 1.46875 -2.914062 1.53125 -2.578125 1.65625 -2.265625 C 1.789062 -1.960938 1.960938 -1.695312 2.171875 -1.46875 C 2.378906 -1.25 2.628906 -1.070312 2.921875 -0.9375 C 3.222656 -0.8125 3.539062 -0.75 3.875 -0.75 Z M 3.875 -0.75 "/></g></g></g><g fill="#006cb7" fill-opacity="1"><g transform="translate(184.296347, 315.981622)"><g/></g></g><g fill="#006cb7" fill-opacity="1"><g transform="translate(187.530074, 315.981622)"><g><path d="M 0.140625 -1.5625 L 0.8125 -2.25 C 1.28125 -1.757812 1.78125 -1.382812 2.3125 -1.125 C 2.851562 -0.875 3.414062 -0.75 4 -0.75 C 4.71875 -0.75 5.304688 -0.914062 5.765625 -1.25 C 6.222656 -1.59375 6.453125 -2.023438 6.453125 -2.546875 C 6.453125 -3.015625 6.289062 -3.375 5.96875 -3.625 C 5.644531 -3.875 5.109375 -4.0625 4.359375 -4.1875 L 3.046875 -4.390625 C 2.160156 -4.535156 1.507812 -4.796875 1.09375 -5.171875 C 0.675781 -5.546875 0.46875 -6.054688 0.46875 -6.703125 C 0.46875 -7.460938 0.765625 -8.078125 1.359375 -8.546875 C 1.953125 -9.015625 2.722656 -9.25 3.671875 -9.25 C 4.304688 -9.25 4.9375 -9.144531 5.5625 -8.9375 C 6.195312 -8.726562 6.769531 -8.425781 7.28125 -8.03125 L 6.703125 -7.25 C 6.210938 -7.625 5.707031 -7.90625 5.1875 -8.09375 C 4.675781 -8.289062 4.160156 -8.390625 3.640625 -8.390625 C 2.984375 -8.390625 2.453125 -8.238281 2.046875 -7.9375 C 1.648438 -7.632812 1.453125 -7.25 1.453125 -6.78125 C 1.453125 -6.351562 1.59375 -6.023438 1.875 -5.796875 C 2.164062 -5.578125 2.640625 -5.414062 3.296875 -5.3125 L 4.609375 -5.09375 C 5.597656 -4.9375 6.320312 -4.65625 6.78125 -4.25 C 7.238281 -3.851562 7.46875 -3.300781 7.46875 -2.59375 C 7.46875 -2.195312 7.378906 -1.828125 7.203125 -1.484375 C 7.035156 -1.148438 6.796875 -0.863281 6.484375 -0.625 C 6.179688 -0.394531 5.8125 -0.210938 5.375 -0.078125 C 4.945312 0.0546875 4.476562 0.125 3.96875 0.125 C 3.25 0.125 2.554688 -0.0195312 1.890625 -0.3125 C 1.222656 -0.601562 0.640625 -1.019531 0.140625 -1.5625 Z M 0.140625 -1.5625 "/></g></g></g><g fill="#006cb7" fill-opacity="1"><g transform="translate(195.783054, 315.981622)"><g><path d="M 1.625 -1.46875 L 1.625 -5.71875 L 0.21875 -5.71875 L 0.21875 -6.53125 L 1.625 -6.53125 L 1.625 -8.1875 L 2.578125 -8.4375 L 2.578125 -6.53125 L 4.546875 -6.53125 L 4.546875 -5.71875 L 2.578125 -5.71875 L 2.578125 -1.703125 C 2.578125 -1.359375 2.65625 -1.109375 2.8125 -0.953125 C 2.96875 -0.804688 3.226562 -0.734375 3.59375 -0.734375 C 3.769531 -0.734375 3.929688 -0.742188 4.078125 -0.765625 C 4.222656 -0.796875 4.378906 -0.84375 4.546875 -0.90625 L 4.546875 -0.046875 C 4.378906 0.015625 4.191406 0.0546875 3.984375 0.078125 C 3.773438 0.109375 3.578125 0.125 3.390625 0.125 C 2.828125 0.125 2.390625 -0.0078125 2.078125 -0.28125 C 1.773438 -0.550781 1.625 -0.945312 1.625 -1.46875 Z M 1.625 -1.46875 "/></g></g></g><g fill="#006cb7" fill-opacity="1"><g transform="translate(200.97234, 315.981622)"><g><path d="M 0.828125 0 L 0.828125 -6.53125 L 1.78125 -6.53125 L 1.78125 -5.609375 C 1.976562 -5.953125 2.234375 -6.21875 2.546875 -6.40625 C 2.859375 -6.59375 3.210938 -6.6875 3.609375 -6.6875 C 3.734375 -6.6875 3.84375 -6.675781 3.9375 -6.65625 C 4.03125 -6.644531 4.128906 -6.625 4.234375 -6.59375 L 4.234375 -5.703125 C 4.117188 -5.734375 4.003906 -5.757812 3.890625 -5.78125 C 3.773438 -5.800781 3.660156 -5.8125 3.546875 -5.8125 C 3.148438 -5.8125 2.796875 -5.695312 2.484375 -5.46875 C 2.179688 -5.238281 1.945312 -4.90625 1.78125 -4.46875 L 1.78125 0 Z M 0.828125 0 "/></g></g></g><g fill="#006cb7" fill-opacity="1"><g transform="translate(205.913926, 315.981622)"><g><path d="M 1.75 -6.53125 L 1.75 -2.59375 C 1.75 -2.019531 1.910156 -1.5625 2.234375 -1.21875 C 2.566406 -0.882812 3.015625 -0.71875 3.578125 -0.71875 C 3.960938 -0.71875 4.3125 -0.804688 4.625 -0.984375 C 4.9375 -1.160156 5.1875 -1.410156 5.375 -1.734375 L 5.375 -6.53125 L 6.34375 -6.53125 L 6.34375 0 L 5.375 0 L 5.375 -0.75 C 5.125 -0.457031 4.828125 -0.238281 4.484375 -0.09375 C 4.140625 0.0507812 3.753906 0.125 3.328125 0.125 C 2.578125 0.125 1.96875 -0.109375 1.5 -0.578125 C 1.03125 -1.046875 0.796875 -1.65625 0.796875 -2.40625 L 0.796875 -6.53125 Z M 1.75 -6.53125 "/></g></g></g><g fill="#006cb7" fill-opacity="1"><g transform="translate(213.502022, 315.981622)"><g><path d="M 3.875 -0.75 C 4.21875 -0.75 4.550781 -0.816406 4.875 -0.953125 C 5.195312 -1.097656 5.5 -1.304688 5.78125 -1.578125 L 6.375 -0.921875 C 6.03125 -0.597656 5.640625 -0.34375 5.203125 -0.15625 C 4.765625 0.03125 4.3125 0.125 3.84375 0.125 C 3.382812 0.125 2.953125 0.0351562 2.546875 -0.140625 C 2.140625 -0.316406 1.785156 -0.554688 1.484375 -0.859375 C 1.191406 -1.160156 0.957031 -1.519531 0.78125 -1.9375 C 0.601562 -2.351562 0.515625 -2.800781 0.515625 -3.28125 C 0.515625 -3.75 0.601562 -4.1875 0.78125 -4.59375 C 0.957031 -5.007812 1.191406 -5.367188 1.484375 -5.671875 C 1.785156 -5.972656 2.140625 -6.210938 2.546875 -6.390625 C 2.953125 -6.578125 3.382812 -6.671875 3.84375 -6.671875 C 4.3125 -6.671875 4.769531 -6.578125 5.21875 -6.390625 C 5.664062 -6.210938 6.0625 -5.960938 6.40625 -5.640625 L 5.796875 -4.9375 C 5.535156 -5.207031 5.234375 -5.414062 4.890625 -5.5625 C 4.554688 -5.707031 4.210938 -5.78125 3.859375 -5.78125 C 3.523438 -5.78125 3.210938 -5.710938 2.921875 -5.578125 C 2.628906 -5.453125 2.375 -5.273438 2.15625 -5.046875 C 1.945312 -4.816406 1.78125 -4.550781 1.65625 -4.25 C 1.53125 -3.945312 1.46875 -3.625 1.46875 -3.28125 C 1.46875 -2.914062 1.53125 -2.578125 1.65625 -2.265625 C 1.789062 -1.960938 1.960938 -1.695312 2.171875 -1.46875 C 2.378906 -1.25 2.628906 -1.070312 2.921875 -0.9375 C 3.222656 -0.8125 3.539062 -0.75 3.875 -0.75 Z M 3.875 -0.75 "/></g></g></g><g fill="#006cb7" fill-opacity="1"><g transform="translate(220.620785, 315.981622)"><g><path d="M 1.625 -1.46875 L 1.625 -5.71875 L 0.21875 -5.71875 L 0.21875 -6.53125 L 1.625 -6.53125 L 1.625 -8.1875 L 2.578125 -8.4375 L 2.578125 -6.53125 L 4.546875 -6.53125 L 4.546875 -5.71875 L 2.578125 -5.71875 L 2.578125 -1.703125 C 2.578125 -1.359375 2.65625 -1.109375 2.8125 -0.953125 C 2.96875 -0.804688 3.226562 -0.734375 3.59375 -0.734375 C 3.769531 -0.734375 3.929688 -0.742188 4.078125 -0.765625 C 4.222656 -0.796875 4.378906 -0.84375 4.546875 -0.90625 L 4.546875 -0.046875 C 4.378906 0.015625 4.191406 0.0546875 3.984375 0.078125 C 3.773438 0.109375 3.578125 0.125 3.390625 0.125 C 2.828125 0.125 2.390625 -0.0078125 2.078125 -0.28125 C 1.773438 -0.550781 1.625 -0.945312 1.625 -1.46875 Z M 1.625 -1.46875 "/></g></g></g><g fill="#006cb7" fill-opacity="1"><g transform="translate(225.810071, 315.981622)"><g><path d="M 1.75 -6.53125 L 1.75 -2.59375 C 1.75 -2.019531 1.910156 -1.5625 2.234375 -1.21875 C 2.566406 -0.882812 3.015625 -0.71875 3.578125 -0.71875 C 3.960938 -0.71875 4.3125 -0.804688 4.625 -0.984375 C 4.9375 -1.160156 5.1875 -1.410156 5.375 -1.734375 L 5.375 -6.53125 L 6.34375 -6.53125 L 6.34375 0 L 5.375 0 L 5.375 -0.75 C 5.125 -0.457031 4.828125 -0.238281 4.484375 -0.09375 C 4.140625 0.0507812 3.753906 0.125 3.328125 0.125 C 2.578125 0.125 1.96875 -0.109375 1.5 -0.578125 C 1.03125 -1.046875 0.796875 -1.65625 0.796875 -2.40625 L 0.796875 -6.53125 Z M 1.75 -6.53125 "/></g></g></g><g fill="#006cb7" fill-opacity="1"><g transform="translate(233.398166, 315.981622)"><g><path d="M 0.828125 0 L 0.828125 -6.53125 L 1.78125 -6.53125 L 1.78125 -5.609375 C 1.976562 -5.953125 2.234375 -6.21875 2.546875 -6.40625 C 2.859375 -6.59375 3.210938 -6.6875 3.609375 -6.6875 C 3.734375 -6.6875 3.84375 -6.675781 3.9375 -6.65625 C 4.03125 -6.644531 4.128906 -6.625 4.234375 -6.59375 L 4.234375 -5.703125 C 4.117188 -5.734375 4.003906 -5.757812 3.890625 -5.78125 C 3.773438 -5.800781 3.660156 -5.8125 3.546875 -5.8125 C 3.148438 -5.8125 2.796875 -5.695312 2.484375 -5.46875 C 2.179688 -5.238281 1.945312 -4.90625 1.78125 -4.46875 L 1.78125 0 Z M 0.828125 0 "/></g></g></g><g fill="#006cb7" fill-opacity="1"><g transform="translate(238.339752, 315.981622)"><g><path d="M 2.890625 0.125 C 2.171875 0.125 1.585938 -0.0546875 1.140625 -0.421875 C 0.691406 -0.796875 0.46875 -1.273438 0.46875 -1.859375 C 0.46875 -2.460938 0.703125 -2.941406 1.171875 -3.296875 C 1.640625 -3.660156 2.273438 -3.84375 3.078125 -3.84375 C 3.421875 -3.84375 3.753906 -3.800781 4.078125 -3.71875 C 4.410156 -3.644531 4.71875 -3.539062 5 -3.40625 L 5 -4.265625 C 5 -4.785156 4.847656 -5.175781 4.546875 -5.4375 C 4.253906 -5.707031 3.828125 -5.84375 3.265625 -5.84375 C 2.941406 -5.84375 2.613281 -5.796875 2.28125 -5.703125 C 1.957031 -5.617188 1.601562 -5.472656 1.21875 -5.265625 L 0.84375 -6.015625 C 1.3125 -6.242188 1.742188 -6.410156 2.140625 -6.515625 C 2.546875 -6.617188 2.953125 -6.671875 3.359375 -6.671875 C 4.179688 -6.671875 4.816406 -6.472656 5.265625 -6.078125 C 5.710938 -5.691406 5.9375 -5.128906 5.9375 -4.390625 L 5.9375 0 L 5 0 L 5 -0.640625 C 4.695312 -0.390625 4.367188 -0.195312 4.015625 -0.0625 C 3.671875 0.0625 3.296875 0.125 2.890625 0.125 Z M 1.390625 -1.875 C 1.390625 -1.507812 1.546875 -1.210938 1.859375 -0.984375 C 2.171875 -0.753906 2.566406 -0.640625 3.046875 -0.640625 C 3.441406 -0.640625 3.800781 -0.695312 4.125 -0.8125 C 4.445312 -0.9375 4.738281 -1.128906 5 -1.390625 L 5 -2.625 C 4.726562 -2.800781 4.4375 -2.929688 4.125 -3.015625 C 3.820312 -3.097656 3.484375 -3.140625 3.109375 -3.140625 C 2.585938 -3.140625 2.171875 -3.023438 1.859375 -2.796875 C 1.546875 -2.566406 1.390625 -2.257812 1.390625 -1.875 Z M 1.390625 -1.875 "/></g></g></g><g fill="#006cb7" fill-opacity="1"><g transform="translate(245.497623, 315.981622)"><g><path d="M 1.78125 -9.359375 L 1.78125 0 L 0.828125 0 L 0.828125 -9.140625 Z M 1.78125 -9.359375 "/></g></g></g><g fill="#006cb7" fill-opacity="1"><g transform="translate(248.535798, 315.981622)"><g/></g></g><g fill="#006cb7" fill-opacity="1"><g transform="translate(251.769525, 315.981622)"><g><path d="M 0.046875 0 L 3.84375 -9.140625 L 5.0625 -9.140625 L 8.8125 0 L 7.703125 0 L 6.5625 -2.875 L 2.25 -2.875 L 1.09375 0 Z M 2.609375 -3.734375 L 6.203125 -3.734375 L 4.421875 -8.1875 Z M 2.609375 -3.734375 "/></g></g></g><g fill="#006cb7" fill-opacity="1"><g transform="translate(261.052426, 315.981622)"><g><path d="M 0.828125 0 L 0.828125 -6.53125 L 1.78125 -6.53125 L 1.78125 -5.765625 C 2.039062 -6.054688 2.34375 -6.28125 2.6875 -6.4375 C 3.03125 -6.59375 3.414062 -6.671875 3.84375 -6.671875 C 4.582031 -6.671875 5.1875 -6.4375 5.65625 -5.96875 C 6.125 -5.5 6.359375 -4.890625 6.359375 -4.140625 L 6.359375 0 L 5.421875 0 L 5.421875 -3.9375 C 5.421875 -4.507812 5.253906 -4.960938 4.921875 -5.296875 C 4.585938 -5.640625 4.144531 -5.8125 3.59375 -5.8125 C 3.195312 -5.8125 2.84375 -5.722656 2.53125 -5.546875 C 2.226562 -5.378906 1.976562 -5.132812 1.78125 -4.8125 L 1.78125 0 Z M 0.828125 0 "/></g></g></g><g fill="#006cb7" fill-opacity="1"><g transform="translate(268.640521, 315.981622)"><g><path d="M 2.890625 0.125 C 2.171875 0.125 1.585938 -0.0546875 1.140625 -0.421875 C 0.691406 -0.796875 0.46875 -1.273438 0.46875 -1.859375 C 0.46875 -2.460938 0.703125 -2.941406 1.171875 -3.296875 C 1.640625 -3.660156 2.273438 -3.84375 3.078125 -3.84375 C 3.421875 -3.84375 3.753906 -3.800781 4.078125 -3.71875 C 4.410156 -3.644531 4.71875 -3.539062 5 -3.40625 L 5 -4.265625 C 5 -4.785156 4.847656 -5.175781 4.546875 -5.4375 C 4.253906 -5.707031 3.828125 -5.84375 3.265625 -5.84375 C 2.941406 -5.84375 2.613281 -5.796875 2.28125 -5.703125 C 1.957031 -5.617188 1.601562 -5.472656 1.21875 -5.265625 L 0.84375 -6.015625 C 1.3125 -6.242188 1.742188 -6.410156 2.140625 -6.515625 C 2.546875 -6.617188 2.953125 -6.671875 3.359375 -6.671875 C 4.179688 -6.671875 4.816406 -6.472656 5.265625 -6.078125 C 5.710938 -5.691406 5.9375 -5.128906 5.9375 -4.390625 L 5.9375 0 L 5 0 L 5 -0.640625 C 4.695312 -0.390625 4.367188 -0.195312 4.015625 -0.0625 C 3.671875 0.0625 3.296875 0.125 2.890625 0.125 Z M 1.390625 -1.875 C 1.390625 -1.507812 1.546875 -1.210938 1.859375 -0.984375 C 2.171875 -0.753906 2.566406 -0.640625 3.046875 -0.640625 C 3.441406 -0.640625 3.800781 -0.695312 4.125 -0.8125 C 4.445312 -0.9375 4.738281 -1.128906 5 -1.390625 L 5 -2.625 C 4.726562 -2.800781 4.4375 -2.929688 4.125 -3.015625 C 3.820312 -3.097656 3.484375 -3.140625 3.109375 -3.140625 C 2.585938 -3.140625 2.171875 -3.023438 1.859375 -2.796875 C 1.546875 -2.566406 1.390625 -2.257812 1.390625 -1.875 Z M 1.390625 -1.875 "/></g></g></g><g fill="#006cb7" fill-opacity="1"><g transform="translate(275.798392, 315.981622)"><g><path d="M 1.78125 -9.359375 L 1.78125 0 L 0.828125 0 L 0.828125 -9.140625 Z M 1.78125 -9.359375 "/></g></g></g><g fill="#006cb7" fill-opacity="1"><g transform="translate(278.836568, 315.981622)"><g><path d="M 2.34375 0.84375 L 2.734375 -0.015625 L 0.0625 -6.53125 L 1.140625 -6.53125 L 3.25 -1.171875 L 5.53125 -6.53125 L 6.578125 -6.53125 L 3.328125 0.984375 C 3.046875 1.609375 2.734375 2.054688 2.390625 2.328125 C 2.054688 2.609375 1.628906 2.75 1.109375 2.75 C 0.984375 2.75 0.863281 2.742188 0.75 2.734375 C 0.644531 2.722656 0.5625 2.707031 0.5 2.6875 L 0.5 1.8125 C 0.582031 1.832031 0.664062 1.84375 0.75 1.84375 C 0.832031 1.851562 0.929688 1.859375 1.046875 1.859375 C 1.335938 1.859375 1.585938 1.773438 1.796875 1.609375 C 2.003906 1.453125 2.1875 1.195312 2.34375 0.84375 Z M 2.34375 0.84375 "/></g></g></g><g fill="#006cb7" fill-opacity="1"><g transform="translate(285.916223, 315.981622)"><g><path d="M 0.15625 -0.90625 L 0.75 -1.53125 C 1.039062 -1.25 1.367188 -1.03125 1.734375 -0.875 C 2.109375 -0.726562 2.488281 -0.65625 2.875 -0.65625 C 3.394531 -0.65625 3.816406 -0.765625 4.140625 -0.984375 C 4.472656 -1.203125 4.640625 -1.484375 4.640625 -1.828125 C 4.640625 -2.109375 4.539062 -2.328125 4.34375 -2.484375 C 4.15625 -2.648438 3.851562 -2.757812 3.4375 -2.8125 L 2.296875 -2.96875 C 1.640625 -3.070312 1.148438 -3.269531 0.828125 -3.5625 C 0.515625 -3.851562 0.359375 -4.242188 0.359375 -4.734375 C 0.359375 -5.285156 0.585938 -5.738281 1.046875 -6.09375 C 1.515625 -6.457031 2.101562 -6.640625 2.8125 -6.640625 C 3.28125 -6.640625 3.722656 -6.566406 4.140625 -6.421875 C 4.566406 -6.285156 4.984375 -6.070312 5.390625 -5.78125 L 4.875 -5.125 C 4.507812 -5.375 4.15625 -5.554688 3.8125 -5.671875 C 3.46875 -5.796875 3.117188 -5.859375 2.765625 -5.859375 C 2.316406 -5.859375 1.953125 -5.757812 1.671875 -5.5625 C 1.390625 -5.363281 1.25 -5.101562 1.25 -4.78125 C 1.25 -4.5 1.34375 -4.28125 1.53125 -4.125 C 1.726562 -3.976562 2.039062 -3.875 2.46875 -3.8125 L 3.59375 -3.65625 C 4.25 -3.5625 4.738281 -3.363281 5.0625 -3.0625 C 5.394531 -2.769531 5.5625 -2.375 5.5625 -1.875 C 5.5625 -1.601562 5.492188 -1.34375 5.359375 -1.09375 C 5.222656 -0.84375 5.035156 -0.628906 4.796875 -0.453125 C 4.554688 -0.273438 4.273438 -0.132812 3.953125 -0.03125 C 3.628906 0.0703125 3.28125 0.125 2.90625 0.125 C 2.363281 0.125 1.851562 0.0351562 1.375 -0.140625 C 0.90625 -0.328125 0.5 -0.582031 0.15625 -0.90625 Z M 0.15625 -0.90625 "/></g></g></g><g fill="#006cb7" fill-opacity="1"><g transform="translate(292.161511, 315.981622)"><g><path d="M 1.3125 -7.78125 C 1.132812 -7.78125 0.976562 -7.847656 0.84375 -7.984375 C 0.71875 -8.117188 0.65625 -8.269531 0.65625 -8.4375 C 0.65625 -8.625 0.71875 -8.78125 0.84375 -8.90625 C 0.976562 -9.03125 1.132812 -9.09375 1.3125 -9.09375 C 1.488281 -9.09375 1.640625 -9.03125 1.765625 -8.90625 C 1.890625 -8.78125 1.953125 -8.625 1.953125 -8.4375 C 1.953125 -8.269531 1.890625 -8.117188 1.765625 -7.984375 C 1.640625 -7.847656 1.488281 -7.78125 1.3125 -7.78125 Z M 1.78125 -6.53125 L 1.78125 0 L 0.828125 0 L 0.828125 -6.53125 Z M 1.78125 -6.53125 "/></g></g></g><g fill="#006cb7" fill-opacity="1"><g transform="translate(295.199686, 315.981622)"><g><path d="M 0.15625 -0.90625 L 0.75 -1.53125 C 1.039062 -1.25 1.367188 -1.03125 1.734375 -0.875 C 2.109375 -0.726562 2.488281 -0.65625 2.875 -0.65625 C 3.394531 -0.65625 3.816406 -0.765625 4.140625 -0.984375 C 4.472656 -1.203125 4.640625 -1.484375 4.640625 -1.828125 C 4.640625 -2.109375 4.539062 -2.328125 4.34375 -2.484375 C 4.15625 -2.648438 3.851562 -2.757812 3.4375 -2.8125 L 2.296875 -2.96875 C 1.640625 -3.070312 1.148438 -3.269531 0.828125 -3.5625 C 0.515625 -3.851562 0.359375 -4.242188 0.359375 -4.734375 C 0.359375 -5.285156 0.585938 -5.738281 1.046875 -6.09375 C 1.515625 -6.457031 2.101562 -6.640625 2.8125 -6.640625 C 3.28125 -6.640625 3.722656 -6.566406 4.140625 -6.421875 C 4.566406 -6.285156 4.984375 -6.070312 5.390625 -5.78125 L 4.875 -5.125 C 4.507812 -5.375 4.15625 -5.554688 3.8125 -5.671875 C 3.46875 -5.796875 3.117188 -5.859375 2.765625 -5.859375 C 2.316406 -5.859375 1.953125 -5.757812 1.671875 -5.5625 C 1.390625 -5.363281 1.25 -5.101562 1.25 -4.78125 C 1.25 -4.5 1.34375 -4.28125 1.53125 -4.125 C 1.726562 -3.976562 2.039062 -3.875 2.46875 -3.8125 L 3.59375 -3.65625 C 4.25 -3.5625 4.738281 -3.363281 5.0625 -3.0625 C 5.394531 -2.769531 5.5625 -2.375 5.5625 -1.875 C 5.5625 -1.601562 5.492188 -1.34375 5.359375 -1.09375 C 5.222656 -0.84375 5.035156 -0.628906 4.796875 -0.453125 C 4.554688 -0.273438 4.273438 -0.132812 3.953125 -0.03125 C 3.628906 0.0703125 3.28125 0.125 2.90625 0.125 C 2.363281 0.125 1.851562 0.0351562 1.375 -0.140625 C 0.90625 -0.328125 0.5 -0.582031 0.15625 -0.90625 Z M 0.15625 -0.90625 "/></g></g></g><g clip-path="url(#edd0c06223)"><path fill="#ff3131" d="M 190.746094 61.1875 C 190.746094 61.605469 190.707031 62.019531 190.625 62.429688 C 190.542969 62.839844 190.421875 63.242188 190.261719 63.628906 C 190.101562 64.015625 189.90625 64.382812 189.671875 64.730469 C 189.441406 65.078125 189.175781 65.398438 188.878906 65.695312 C 188.585938 65.992188 188.261719 66.253906 187.914062 66.488281 C 187.566406 66.71875 187.199219 66.917969 186.8125 67.078125 C 186.425781 67.238281 186.027344 67.359375 185.617188 67.441406 C 185.207031 67.523438 184.792969 67.5625 184.371094 67.5625 C 183.953125 67.5625 183.539062 67.523438 183.128906 67.441406 C 182.71875 67.359375 182.320312 67.238281 181.933594 67.078125 C 181.546875 66.917969 181.179688 66.71875 180.832031 66.488281 C 180.484375 66.253906 180.160156 65.992188 179.863281 65.695312 C 179.570312 65.398438 179.304688 65.078125 179.074219 64.730469 C 178.839844 64.382812 178.644531 64.015625 178.484375 63.628906 C 178.324219 63.242188 178.203125 62.839844 178.121094 62.429688 C 178.039062 62.019531 177.996094 61.605469 177.996094 61.1875 C 177.996094 60.769531 178.039062 60.355469 178.121094 59.945312 C 178.203125 59.535156 178.324219 59.132812 178.484375 58.746094 C 178.644531 58.359375 178.839844 57.992188 179.074219 57.644531 C 179.304688 57.296875 179.570312 56.976562 179.863281 56.679688 C 180.160156 56.382812 180.484375 56.121094 180.832031 55.886719 C 181.179688 55.65625 181.546875 55.457031 181.933594 55.296875 C 182.320312 55.136719 182.71875 55.015625 183.128906 54.933594 C 183.539062 54.851562 183.953125 54.8125 184.371094 54.8125 C 184.792969 54.8125 185.207031 54.851562 185.617188 54.933594 C 186.027344 55.015625 186.425781 55.136719 186.8125 55.296875 C 187.199219 55.457031 187.566406 55.65625 187.914062 55.886719 C 188.261719 56.121094 188.585938 56.382812 188.878906 56.679688 C 189.175781 56.976562 189.441406 57.296875 189.671875 57.644531 C 189.90625 57.992188 190.101562 58.359375 190.261719 58.746094 C 190.421875 59.132812 190.542969 59.535156 190.625 59.945312 C 190.707031 60.355469 190.746094 60.769531 190.746094 61.1875 Z M 190.746094 61.1875 " fill-opacity="1" fill-rule="nonzero"/></g><g clip-path="url(#cafaf525ae)"><path fill="#ff3131" d="M 190.746094 122.921875 C 190.746094 123.339844 190.707031 123.753906 190.625 124.167969 C 190.542969 124.578125 190.421875 124.976562 190.261719 125.363281 C 190.101562 125.75 189.90625 126.117188 189.671875 126.464844 C 189.441406 126.8125 189.175781 127.132812 188.878906 127.429688 C 188.585938 127.726562 188.261719 127.992188 187.914062 128.222656 C 187.566406 128.457031 187.199219 128.652344 186.8125 128.8125 C 186.425781 128.972656 186.027344 129.09375 185.617188 129.175781 C 185.207031 129.257812 184.792969 129.296875 184.371094 129.296875 C 183.953125 129.296875 183.539062 129.257812 183.128906 129.175781 C 182.71875 129.09375 182.320312 128.972656 181.933594 128.8125 C 181.546875 128.652344 181.179688 128.457031 180.832031 128.222656 C 180.484375 127.992188 180.160156 127.726562 179.863281 127.429688 C 179.570312 127.132812 179.304688 126.8125 179.074219 126.464844 C 178.839844 126.117188 178.644531 125.75 178.484375 125.363281 C 178.324219 124.976562 178.203125 124.578125 178.121094 124.167969 C 178.039062 123.753906 177.996094 123.339844 177.996094 122.921875 C 177.996094 122.503906 178.039062 122.089844 178.121094 121.679688 C 178.203125 121.269531 178.324219 120.871094 178.484375 120.484375 C 178.644531 120.097656 178.839844 119.730469 179.074219 119.378906 C 179.304688 119.03125 179.570312 118.710938 179.863281 118.414062 C 180.160156 118.117188 180.484375 117.855469 180.832031 117.621094 C 181.179688 117.390625 181.546875 117.191406 181.933594 117.03125 C 182.320312 116.871094 182.71875 116.75 183.128906 116.671875 C 183.539062 116.589844 183.953125 116.546875 184.371094 116.546875 C 184.792969 116.546875 185.207031 116.589844 185.617188 116.671875 C 186.027344 116.75 186.425781 116.871094 186.8125 117.03125 C 187.199219 117.191406 187.566406 117.390625 187.914062 117.621094 C 188.261719 117.855469 188.585938 118.117188 188.878906 118.414062 C 189.175781 118.710938 189.441406 119.03125 189.671875 119.378906 C 189.90625 119.730469 190.101562 120.097656 190.261719 120.484375 C 190.421875 120.871094 190.542969 121.269531 190.625 121.679688 C 190.707031 122.089844 190.746094 122.503906 190.746094 122.921875 Z M 190.746094 122.921875 " fill-opacity="1" fill-rule="nonzero"/></g><g clip-path="url(#9ad033cbbf)"><path fill="#ff3131" d="M 213.21875 133.421875 C 213.21875 133.839844 213.179688 134.253906 213.097656 134.664062 C 213.015625 135.074219 212.894531 135.472656 212.734375 135.859375 C 212.574219 136.246094 212.378906 136.613281 212.144531 136.960938 C 211.914062 137.3125 211.648438 137.632812 211.351562 137.929688 C 211.054688 138.226562 210.734375 138.488281 210.386719 138.722656 C 210.039062 138.953125 209.671875 139.152344 209.285156 139.3125 C 208.898438 139.472656 208.5 139.59375 208.089844 139.671875 C 207.675781 139.753906 207.261719 139.796875 206.84375 139.796875 C 206.425781 139.796875 206.011719 139.753906 205.601562 139.671875 C 205.191406 139.59375 204.792969 139.472656 204.40625 139.3125 C 204.019531 139.152344 203.652344 138.953125 203.300781 138.722656 C 202.953125 138.488281 202.632812 138.226562 202.335938 137.929688 C 202.039062 137.632812 201.777344 137.3125 201.542969 136.960938 C 201.3125 136.613281 201.113281 136.246094 200.953125 135.859375 C 200.792969 135.472656 200.671875 135.074219 200.59375 134.664062 C 200.511719 134.253906 200.46875 133.839844 200.46875 133.421875 C 200.46875 133.003906 200.511719 132.589844 200.59375 132.175781 C 200.671875 131.765625 200.792969 131.367188 200.953125 130.980469 C 201.113281 130.59375 201.3125 130.226562 201.542969 129.878906 C 201.777344 129.53125 202.039062 129.210938 202.335938 128.914062 C 202.632812 128.617188 202.953125 128.351562 203.300781 128.121094 C 203.652344 127.886719 204.019531 127.691406 204.40625 127.53125 C 204.792969 127.371094 205.191406 127.25 205.601562 127.167969 C 206.011719 127.085938 206.425781 127.046875 206.84375 127.046875 C 207.261719 127.046875 207.675781 127.085938 208.089844 127.167969 C 208.5 127.25 208.898438 127.371094 209.285156 127.53125 C 209.671875 127.691406 210.039062 127.886719 210.386719 128.121094 C 210.734375 128.351562 211.054688 128.617188 211.351562 128.914062 C 211.648438 129.210938 211.914062 129.53125 212.144531 129.878906 C 212.378906 130.226562 212.574219 130.59375 212.734375 130.980469 C 212.894531 131.367188 213.015625 131.765625 213.097656 132.175781 C 213.179688 132.589844 213.21875 133.003906 213.21875 133.421875 Z M 213.21875 133.421875 " fill-opacity="1" fill-rule="nonzero"/></g><g clip-path="url(#46850bb815)"><path fill="#ff3131" d="M 239.886719 147.601562 C 239.886719 148.023438 239.847656 148.4375 239.765625 148.847656 C 239.683594 149.257812 239.5625 149.65625 239.402344 150.042969 C 239.242188 150.429688 239.046875 150.796875 238.8125 151.144531 C 238.582031 151.492188 238.316406 151.816406 238.019531 152.109375 C 237.726562 152.40625 237.402344 152.671875 237.054688 152.902344 C 236.707031 153.136719 236.339844 153.332031 235.953125 153.492188 C 235.566406 153.652344 235.167969 153.773438 234.757812 153.855469 C 234.347656 153.9375 233.933594 153.976562 233.511719 153.976562 C 233.09375 153.976562 232.679688 153.9375 232.269531 153.855469 C 231.859375 153.773438 231.460938 153.652344 231.074219 153.492188 C 230.6875 153.332031 230.320312 153.136719 229.972656 152.902344 C 229.625 152.671875 229.300781 152.40625 229.003906 152.109375 C 228.710938 151.816406 228.445312 151.492188 228.214844 151.144531 C 227.980469 150.796875 227.785156 150.429688 227.625 150.042969 C 227.464844 149.65625 227.34375 149.257812 227.261719 148.847656 C 227.179688 148.4375 227.136719 148.023438 227.136719 147.601562 C 227.136719 147.183594 227.179688 146.769531 227.261719 146.359375 C 227.34375 145.949219 227.464844 145.550781 227.625 145.164062 C 227.785156 144.777344 227.980469 144.410156 228.214844 144.0625 C 228.445312 143.714844 228.710938 143.390625 229.003906 143.09375 C 229.300781 142.800781 229.625 142.535156 229.972656 142.304688 C 230.320312 142.070312 230.6875 141.875 231.074219 141.714844 C 231.460938 141.554688 231.859375 141.433594 232.269531 141.351562 C 232.679688 141.269531 233.09375 141.226562 233.511719 141.226562 C 233.933594 141.226562 234.347656 141.269531 234.757812 141.351562 C 235.167969 141.433594 235.566406 141.554688 235.953125 141.714844 C 236.339844 141.875 236.707031 142.070312 237.054688 142.304688 C 237.402344 142.535156 237.726562 142.800781 238.019531 143.09375 C 238.316406 143.390625 238.582031 143.714844 238.8125 144.0625 C 239.046875 144.410156 239.242188 144.777344 239.402344 145.164062 C 239.5625 145.550781 239.683594 145.949219 239.765625 146.359375 C 239.847656 146.769531 239.886719 147.183594 239.886719 147.601562 Z M 239.886719 147.601562 " fill-opacity="1" fill-rule="nonzero"/></g><g clip-path="url(#ee8ff2a9cf)"><path fill="#ff3131" d="M 222.613281 199.496094 C 222.613281 199.917969 222.570312 200.332031 222.492188 200.742188 C 222.410156 201.152344 222.289062 201.550781 222.128906 201.9375 C 221.96875 202.324219 221.769531 202.691406 221.539062 203.039062 C 221.304688 203.386719 221.042969 203.710938 220.746094 204.003906 C 220.449219 204.300781 220.128906 204.566406 219.78125 204.796875 C 219.433594 205.03125 219.0625 205.226562 218.675781 205.386719 C 218.289062 205.546875 217.890625 205.667969 217.480469 205.75 C 217.070312 205.832031 216.65625 205.871094 216.238281 205.871094 C 215.820312 205.871094 215.40625 205.832031 214.996094 205.75 C 214.582031 205.667969 214.183594 205.546875 213.796875 205.386719 C 213.410156 205.226562 213.042969 205.03125 212.695312 204.796875 C 212.347656 204.566406 212.027344 204.300781 211.730469 204.003906 C 211.433594 203.710938 211.167969 203.386719 210.9375 203.039062 C 210.703125 202.691406 210.507812 202.324219 210.347656 201.9375 C 210.1875 201.550781 210.066406 201.152344 209.984375 200.742188 C 209.902344 200.332031 209.863281 199.917969 209.863281 199.496094 C 209.863281 199.078125 209.902344 198.664062 209.984375 198.253906 C 210.066406 197.84375 210.1875 197.445312 210.347656 197.058594 C 210.507812 196.671875 210.703125 196.304688 210.9375 195.957031 C 211.167969 195.609375 211.433594 195.285156 211.730469 194.988281 C 212.027344 194.695312 212.347656 194.429688 212.695312 194.195312 C 213.042969 193.964844 213.410156 193.769531 213.796875 193.609375 C 214.183594 193.449219 214.582031 193.328125 214.996094 193.246094 C 215.40625 193.164062 215.820312 193.121094 216.238281 193.121094 C 216.65625 193.121094 217.070312 193.164062 217.480469 193.246094 C 217.890625 193.328125 218.289062 193.449219 218.675781 193.609375 C 219.0625 193.769531 219.433594 193.964844 219.78125 194.195312 C 220.128906 194.429688 220.449219 194.695312 220.746094 194.988281 C 221.042969 195.285156 221.304688 195.609375 221.539062 195.957031 C 221.769531 196.304688 221.96875 196.671875 222.128906 197.058594 C 222.289062 197.445312 222.410156 197.84375 222.492188 198.253906 C 222.570312 198.664062 222.613281 199.078125 222.613281 199.496094 Z M 222.613281 199.496094 " fill-opacity="1" fill-rule="nonzero"/></g><g clip-path="url(#fa6b17a49c)"><path fill="#ff3131" d="M 190.746094 199.496094 C 190.746094 199.917969 190.707031 200.332031 190.625 200.742188 C 190.542969 201.152344 190.421875 201.550781 190.261719 201.9375 C 190.101562 202.324219 189.90625 202.691406 189.671875 203.039062 C 189.441406 203.386719 189.175781 203.710938 188.878906 204.003906 C 188.585938 204.300781 188.261719 204.566406 187.914062 204.796875 C 187.566406 205.03125 187.199219 205.226562 186.8125 205.386719 C 186.425781 205.546875 186.027344 205.667969 185.617188 205.75 C 185.207031 205.832031 184.792969 205.871094 184.371094 205.871094 C 183.953125 205.871094 183.539062 205.832031 183.128906 205.75 C 182.71875 205.667969 182.320312 205.546875 181.933594 205.386719 C 181.546875 205.226562 181.179688 205.03125 180.832031 204.796875 C 180.484375 204.566406 180.160156 204.300781 179.863281 204.003906 C 179.570312 203.710938 179.304688 203.386719 179.074219 203.039062 C 178.839844 202.691406 178.644531 202.324219 178.484375 201.9375 C 178.324219 201.550781 178.203125 201.152344 178.121094 200.742188 C 178.039062 200.332031 177.996094 199.917969 177.996094 199.496094 C 177.996094 199.078125 178.039062 198.664062 178.121094 198.253906 C 178.203125 197.84375 178.324219 197.445312 178.484375 197.058594 C 178.644531 196.671875 178.839844 196.304688 179.074219 195.957031 C 179.304688 195.609375 179.570312 195.285156 179.863281 194.988281 C 180.160156 194.695312 180.484375 194.429688 180.832031 194.195312 C 181.179688 193.964844 181.546875 193.769531 181.933594 193.609375 C 182.320312 193.449219 182.71875 193.328125 183.128906 193.246094 C 183.539062 193.164062 183.953125 193.121094 184.371094 193.121094 C 184.792969 193.121094 185.207031 193.164062 185.617188 193.246094 C 186.027344 193.328125 186.425781 193.449219 186.8125 193.609375 C 187.199219 193.769531 187.566406 193.964844 187.914062 194.195312 C 188.261719 194.429688 188.585938 194.695312 188.878906 194.988281 C 189.175781 195.285156 189.441406 195.609375 189.671875 195.957031 C 189.90625 196.304688 190.101562 196.671875 190.261719 197.058594 C 190.421875 197.445312 190.542969 197.84375 190.625 198.253906 C 190.707031 198.664062 190.746094 199.078125 190.746094 199.496094 Z M 190.746094 199.496094 " fill-opacity="1" fill-rule="nonzero"/></g><g clip-path="url(#ec07974f41)"><path fill="#ff3131" d="M 190.746094 254.0625 C 190.746094 254.480469 190.707031 254.894531 190.625 255.308594 C 190.542969 255.71875 190.421875 256.117188 190.261719 256.503906 C 190.101562 256.890625 189.90625 257.257812 189.671875 257.605469 C 189.441406 257.953125 189.175781 258.273438 188.878906 258.570312 C 188.585938 258.867188 188.261719 259.132812 187.914062 259.363281 C 187.566406 259.597656 187.199219 259.792969 186.8125 259.953125 C 186.425781 260.113281 186.027344 260.234375 185.617188 260.316406 C 185.207031 260.398438 184.792969 260.4375 184.371094 260.4375 C 183.953125 260.4375 183.539062 260.398438 183.128906 260.316406 C 182.71875 260.234375 182.320312 260.113281 181.933594 259.953125 C 181.546875 259.792969 181.179688 259.597656 180.832031 259.363281 C 180.484375 259.132812 180.160156 258.867188 179.863281 258.570312 C 179.570312 258.273438 179.304688 257.953125 179.074219 257.605469 C 178.839844 257.257812 178.644531 256.890625 178.484375 256.503906 C 178.324219 256.117188 178.203125 255.71875 178.121094 255.308594 C 178.039062 254.894531 177.996094 254.480469 177.996094 254.0625 C 177.996094 253.644531 178.039062 253.230469 178.121094 252.820312 C 178.203125 252.410156 178.324219 252.011719 178.484375 251.625 C 178.644531 251.238281 178.839844 250.871094 179.074219 250.519531 C 179.304688 250.171875 179.570312 249.851562 179.863281 249.554688 C 180.160156 249.257812 180.484375 248.996094 180.832031 248.761719 C 181.179688 248.53125 181.546875 248.332031 181.933594 248.171875 C 182.320312 248.011719 182.71875 247.890625 183.128906 247.8125 C 183.539062 247.730469 183.953125 247.6875 184.371094 247.6875 C 184.792969 247.6875 185.207031 247.730469 185.617188 247.8125 C 186.027344 247.890625 186.425781 248.011719 186.8125 248.171875 C 187.199219 248.332031 187.566406 248.53125 187.914062 248.761719 C 188.261719 248.996094 188.585938 249.257812 188.878906 249.554688 C 189.175781 249.851562 189.441406 250.171875 189.671875 250.519531 C 189.90625 250.871094 190.101562 251.238281 190.261719 251.625 C 190.421875 252.011719 190.542969 252.410156 190.625 252.820312 C 190.707031 253.230469 190.746094 253.644531 190.746094 254.0625 Z M 190.746094 254.0625 " fill-opacity="1" fill-rule="nonzero"/></g><g clip-path="url(#106bff55f6)"><path fill="#ff3131" d="M 301.078125 254.0625 C 301.078125 254.480469 301.035156 254.894531 300.953125 255.308594 C 300.871094 255.71875 300.75 256.117188 300.589844 256.503906 C 300.429688 256.890625 300.234375 257.257812 300 257.605469 C 299.769531 257.953125 299.503906 258.273438 299.210938 258.570312 C 298.914062 258.867188 298.589844 259.132812 298.242188 259.363281 C 297.894531 259.597656 297.527344 259.792969 297.140625 259.953125 C 296.753906 260.113281 296.355469 260.234375 295.945312 260.316406 C 295.535156 260.398438 295.121094 260.4375 294.703125 260.4375 C 294.28125 260.4375 293.867188 260.398438 293.457031 260.316406 C 293.046875 260.234375 292.648438 260.113281 292.261719 259.953125 C 291.875 259.792969 291.507812 259.597656 291.160156 259.363281 C 290.8125 259.132812 290.488281 258.867188 290.195312 258.570312 C 289.898438 258.273438 289.632812 257.953125 289.402344 257.605469 C 289.167969 257.257812 288.972656 256.890625 288.8125 256.503906 C 288.652344 256.117188 288.53125 255.71875 288.449219 255.308594 C 288.367188 254.894531 288.328125 254.480469 288.328125 254.0625 C 288.328125 253.644531 288.367188 253.230469 288.449219 252.820312 C 288.53125 252.410156 288.652344 252.011719 288.8125 251.625 C 288.972656 251.238281 289.167969 250.871094 289.402344 250.519531 C 289.632812 250.171875 289.898438 249.851562 290.195312 249.554688 C 290.488281 249.257812 290.8125 248.996094 291.160156 248.761719 C 291.507812 248.53125 291.875 248.332031 292.261719 248.171875 C 292.648438 248.011719 293.046875 247.890625 293.457031 247.8125 C 293.867188 247.730469 294.28125 247.6875 294.703125 247.6875 C 295.121094 247.6875 295.535156 247.730469 295.945312 247.8125 C 296.355469 247.890625 296.753906 248.011719 297.140625 248.171875 C 297.527344 248.332031 297.894531 248.53125 298.242188 248.761719 C 298.589844 248.996094 298.914062 249.257812 299.210938 249.554688 C 299.503906 249.851562 299.769531 250.171875 300 250.519531 C 300.234375 250.871094 300.429688 251.238281 300.589844 251.625 C 300.75 252.011719 300.871094 252.410156 300.953125 252.820312 C 301.035156 253.230469 301.078125 253.644531 301.078125 254.0625 Z M 301.078125 254.0625 " fill-opacity="1" fill-rule="nonzero"/></g></svg>